<svg id="Layer_1" data-name="Layer 1" xmlns="http://www.w3.org/2000/svg" viewBox="0 0 273.37 296.95"><defs><style>.cls-1{fill:#a9a3a1;}</style></defs><title>logo</title><path class="cls-1" d="M131.42,26.49c0,1.19-.83,2.54-2.63,4.05s-2.81,2.6-3,3.27q-4.8,9.86-3.42,38.27l.46,7.69a4.61,4.61,0,0,1,1.38-.24c2-.07,3.89,1,5.74,3.16a10.56,10.56,0,0,1,2.89,6.43c.06,1.58-1.16,2.74-3.63,3.48L123.27,94q.53,9.29,1,18.75.81,12,3.19,17.88a28.69,28.69,0,0,1,1.8,6.46,10.47,10.47,0,0,1-2.71,7.31,9.09,9.09,0,0,1-6.8,3.5q-7.51.26-10.15-7.56-.45-1.56-2.25-13.76-.56-4.33-.76-10.45l-.28-8.1a109.08,109.08,0,0,0-1.44-13.2,186.29,186.29,0,0,0-27.14,4.3q-13.53,3-26.87,6.07.87,2.55,1.52,21.3.52,15,5.23,19.59a3.79,3.79,0,0,1,.66,2q.18,5.13-7.72,5.4-7.31.26-11.61-4.14-2.67-2.69-6.36-40.91a8.77,8.77,0,0,1-6.08-4.33,15.43,15.43,0,0,1-2.44-7.83,3.28,3.28,0,0,1,2.45-3.34c1.69-.66,3.32-1.27,4.88-1.85q.11-2.58.47-9.31.39-5.74.28-9.11Q31,37.88,34.41,28.26q2.9-7.82,10.59-8.07a14.68,14.68,0,0,1,9,2.75,9.19,9.19,0,0,1,4.41,7.46,15.46,15.46,0,0,1-1.38,6A59.5,59.5,0,0,0,54.85,42q-4.76,16.77-4,39.68c.09,2.5.14,4,.16,4.54,1.18-.17,4.26-.81,9.23-1.9a220.77,220.77,0,0,1,43.67-6.26q-.41-29,.29-37.57,2.37-28.56,12.64-28.91a12.63,12.63,0,0,1,10.23,4.3A16.09,16.09,0,0,1,131.42,26.49Z" transform="translate(-10.24 -11.56)"/><path class="cls-1" d="M278.33,221a49.7,49.7,0,0,1-1.27,8.54Q264.87,279.82,225.22,277a65.74,65.74,0,0,1-35.61-12.93l-.33,4.63q-1.28,14.75,1.2,20.45,3.65,8,3.57,9.11a10.44,10.44,0,0,1-4,7.47,11,11,0,0,1-8.06,2.75q-9.9-.71-12.93-8-1.69-4.32-1.54-15.83.09-7.52.78-17.21a93,93,0,0,1,1.78-11.16,92.25,92.25,0,0,0,1.8-11.39l1.06-15a179.4,179.4,0,0,1,2.27-19.43q2-12.81,2.45-19l1.4-19.83q0-.44-1.14-12,6-4.89,11.07-4.53a11.5,11.5,0,0,1,9.08,5,16.13,16.13,0,0,1,2.75,10.71c-.07,1-.15,2.06-.22,3.08q15.9-18.13,38.14-16.56,20.92,1.49,31.94,18,9.78,14.87,8.26,36.45c-.07,1-.18,2.57-.33,4.63S278.4,220,278.33,221Zm-19.8-4.94q1.08-15.21-2.78-26.32-5.37-15-18.58-15.93-17-1.2-30.54,18.65Q194.56,209.76,193.26,228q-2.16,30.61,28.67,32.8,16.53,1.17,25.25-12.6,5-7.62,10.41-28.27C258.23,217.22,258.54,215.91,258.53,216.06Z" transform="translate(-10.24 -11.56)"/><path class="cls-1" d="M272.84,97.86c-.31-.09-.63-.15-.94-.22.29-.86.56-1.72.81-2.6a57.32,57.32,0,0,0-6.06-45.56,16.14,16.14,0,0,0,6.2-6.66c5.9-11.1-5.06-22.93-5.06-22.93C264.17,31.19,244.23,27,234,24.05a60.14,60.14,0,0,0-6.18-1.47.3.3,0,0,0,0,.08,57.52,57.52,0,0,0-65.73,40.71c-.25.88-.47,1.75-.67,2.62-.19-.06-.36-.13-.55-.18A14.84,14.84,0,1,0,158,94.86c1.64,20,18,38.84,41.84,45.65s47.8-.52,59.75-16.69a14.68,14.68,0,0,0,5,2.58,14.84,14.84,0,0,0,8.17-28.54Zm2.22,18c-2.27,3.63-5.42,3.52-8.19,3-4.61-.81-9.29-4.54-9.29-4.54-13.8,17.08-34.34,23.58-57,16.41C166.39,120,166.14,88.38,166.14,88.38c-2.16.72-5.95.21-9.7-.86a7.82,7.82,0,0,1-5.8-8.62c.63-4.75,5.32-6.56,8.67-6.52a68.26,68.26,0,0,1,8,.84c16.91-51.8,57.86-43.72,71.25-39.35,17,5.55,26.75-.87,26.75-.87,3.47,10.42-9.69,14.36-9.69,14.36,18.4,26,7.48,53.07,7.48,53.07,5.42,1.88,8.79,3.78,10.72,5.49A7.47,7.47,0,0,1,275.06,115.84ZM190.38,75.77A7.12,7.12,0,1,1,184,83.19,6.95,6.95,0,0,1,190.38,75.77Zm47.83,13.64a7.12,7.12,0,1,1-6.44,7.42A7,7,0,0,1,238.21,89.41Z" transform="translate(-10.24 -11.56)"/><path class="cls-1" d="M138.65,175c-18-12.23-43.46-7.47-57.65,10.34-17.55-14.5-43.4-14-58.54,1.74C2.77,207.51,9,236.8,26,250.9L81.7,297a15.16,15.16,0,0,0,21.59-2.22l45-56.52C162,220.92,162.15,191,138.65,175Zm-1.18,54.52-45,56.52a1.19,1.19,0,0,1-1.95.21L34.83,240.21c-11.58-9.59-15.81-29.57-2.4-43.47,10.19-10.55,27.56-10.93,39.49-1.06L83,204.88l9-11.29c9.7-12.18,26.78-15.32,38.86-7.12,16,10.85,15.89,31.4,6.6,43.07Z" transform="translate(-10.24 -11.56)"/><path class="cls-1" d="M78.62,206.41c.16.54,3.33,10.84,3.86,14.86.8,6.13-1.89,10.93-6.48,13.32l5.16,27.72a2.84,2.84,0,0,1-2.43,3.33l-7.5,1A2.84,2.84,0,0,1,68,264l-2.14-28.11c-5.06-1.13-8.88-5.09-9.68-11.21-.52-4-.1-14.79-.08-15.35.06-2.43,5-3.11,5.63-.61l2.16,16.56c.21.38,1.82.15,1.88-.24-.22-3-1.21-16.45-1.23-16.75.06-2.49,4.92-3.13,5.61-.74.07.32,2.56,13.56,3.11,16.51.16.36,1.79.17,1.88-.25L73,207.28C73,204.7,77.93,204.08,78.62,206.41ZM97,238.09,98.05,260a2.83,2.83,0,0,0,3.2,2.68l6.56-.86a2.83,2.83,0,0,0,2.45-3.18l-7.11-54.4a2.84,2.84,0,0,0-3.18-2.45c-9.67,1.26-23.23,24.32-3,36.28Z" transform="translate(-10.24 -11.56)"/></svg>